<?xml version="1.0" standalone="no"?>
<!DOCTYPE svg PUBLIC "-//W3C//DTD SVG 20010904//EN"
 "http://www.w3.org/TR/2001/REC-SVG-20010904/DTD/svg10.dtd">
<svg version="1.0" xmlns="http://www.w3.org/2000/svg"
 width="500.000000pt" height="500.000000pt" viewBox="0 0 500.000000 500.000000"
 preserveAspectRatio="xMidYMid meet">

<g transform="translate(0.000000,500.000000) scale(0.100000,-0.100000)"
fill="#000000" stroke="none">
<path d="M0 2500 l0 -2500 2500 0 2500 0 0 2500 0 2500 -2500 0 -2500 0 0
-2500z m2077 115 c60 -182 110 -315 120 -322 9 -7 29 -13 43 -13 17 0 27 -5
27 -15 0 -13 -25 -15 -164 -15 -138 0 -163 2 -163 15 0 11 11 15 40 15 52 0
57 14 33 87 l-20 58 -96 3 -97 3 -11 -28 c-32 -83 -20 -123 37 -123 24 0 34
-5 34 -15 0 -12 -20 -15 -120 -15 -100 0 -120 3 -120 15 0 10 10 15 28 15 55
0 74 36 181 349 56 161 101 296 101 298 0 2 10 3 22 1 19 -3 34 -41 125 -313z
m690 288 c3 -7 -10 -13 -34 -15 l-38 -3 -5 -250 c-6 -278 -10 -296 -72 -351
-75 -65 -189 -65 -254 0 -73 73 -46 216 40 216 43 0 68 -28 64 -72 -2 -26 -11
-38 -41 -57 -30 -20 -37 -30 -35 -50 4 -35 66 -67 106 -54 47 16 53 54 50 352
l-3 266 -47 3 c-34 2 -48 7 -48 18 0 12 24 14 157 12 109 -2 158 -7 160 -15z
m613 -97 c0 -63 3 -122 6 -131 5 -13 2 -16 -11 -14 -13 3 -23 23 -35 66 -32
117 -93 167 -198 161 l-57 -3 -3 -137 -3 -138 40 0 c44 0 71 25 91 86 6 19 18
34 26 34 11 0 14 -26 14 -145 0 -115 -3 -145 -13 -145 -8 0 -19 19 -26 41 -17
57 -51 89 -96 89 l-35 0 0 -145 0 -145 49 0 c34 0 51 -4 55 -15 5 -13 -18 -15
-164 -15 -141 0 -170 2 -170 14 0 10 14 16 43 18 l42 3 0 300 0 300 -42 3
c-29 2 -43 8 -43 18 0 12 41 14 265 14 l265 0 0 -114z"/>
<path d="M1856 2597 c-22 -62 -41 -118 -44 -124 -3 -10 17 -13 82 -13 47 0 86
3 86 6 0 10 -73 229 -79 236 -4 4 -24 -43 -45 -105z"/>
</g>
</svg>
